# xmcd CD database file
#
# Track frame offsets:
#	150
#	15744
#	38925
#	57768
#	81321
#	93303
#	111381
#	128438
#	138674
#	161689
#	182915
#	201936
#	223999
#	242861
#
# Disc length: 3452 seconds
#
# Revision: 0
# Processed by: cddbd v1.5.2PL0 Copyright (c) Steve Scherf et al.
# Submitted via: CDex 1.70beta2
#
DISCID=ce0d7a0e
DTITLE=Grupo Sal - Sin fronteras
DYEAR=2006
DGENRE=Salsa
TTITLE0=Tango Negro
TTITLE1=Moliendo cafe
TTITLE2=Tiempo de Solea
TTITLE3=El Loco
TTITLE4=Maria
TTITLE5=Anacaona
TTITLE6=Chiquilin de Bachin
TTITLE7=Choropotop
TTITLE8=Sicarios
TTITLE9=Oyelo que te conviene
TTITLE10=Flor de Lis
TTITLE11=Alfonsina yel Mar
TTITLE12=Visa para un sueno
TTITLE13=El Cachapecero
EXTD=YEAR: 2006
EXTT0=
EXTT1=
EXTT2=
EXTT3=
EXTT4=
EXTT5=
EXTT6=
EXTT7=
EXTT8=
EXTT9=
EXTT10=
EXTT11=
EXTT12=
EXTT13=
PLAYORDER=
